#!OML:ASF H:\Terrain\Walking\May29\JustinRory\Justin.ASF
:FULLY-SPECIFIED
:DEGREES
371
root 11.4375 15.5797 17.8174 -305.399 -71.7138 319.906
lowerback 23.8797 1.91233 0.415734
upperback 8.4457 2.04128 1.18925
thorax -4.03559 0.740676 0.520484
lowerneck -14.6012 -0.332935 -4.98849
upperneck 32.1176 0.0770111 0.39792
head 13.2134 -0.745342 0.984167
rclavicle -2.38542e-015 1.74931e-014
rhumerus -64.2042 -46.72 4.77776
rradius 35.6799
rwrist -68.2806
rhand -2.96074 -1.46863
rfingers 7.12502
rthumb 22.7516 -30.1471
lclavicle -2.38542e-015 1.74931e-014
lhumerus -37.6511 27.5038 57.5629
lradius 34.3147
lwrist -0.888995
lhand -8.92276 34.3988
lfingers 7.12502
lthumb 17.0208 63.6731
rfemur -17.7579 -18.7702 12.177
rtibia 45.1914
rfoot -29.1067 -3.82531
rtoes -41.3933
lfemur -54.2614 19.8267 3.68169
ltibia 82.8647
lfoot -24.5967 -3.11742
ltoes -16.4279
372
root 11.4398 15.5603 17.8984 -305.865 -72.081 320.613
lowerback 23.7808 1.81221 0.288282
upperback 8.48081 1.85188 0.643588
thorax -3.93242 0.656045 0.0576765
lowerneck -14.6437 -0.614814 -4.49682
upperneck 32.0749 -0.543302 0.632988
head 13.2196 -0.921397 0.895937
rclavicle 0 5.56597e-015
rhumerus -63.8073 -46.547 3.90856
rradius 35.4942
rwrist -68.1803
rhand -3.39176 -2.25328
rfingers 7.12502
rthumb 22.3379 -30.982
lclavicle 0 5.56597e-015
lhumerus -37.1259 27.7174 57.4193
lradius 33.1768
lwrist -2.18965
lhand -7.00605 34.174
lfingers 7.12502
lthumb 18.865 63.2792
rfemur -17.8767 -18.8829 11.4145
rtibia 45.05
rfoot -28.8469 -3.75012
rtoes -41.7799
lfemur -54.7276 19.4665 3.16655
ltibia 83.0649
lfoot -24.7816 -3.49557
ltoes -18.019
373
root 11.4461 15.5483 17.9779 -305.399 -72.3763 320.324
lowerback 23.9132 1.99906 -0.27838
upperback 8.40638 1.97229 0.708514
thorax -4.10228 0.707605 0.414898
lowerneck -14.7681 -0.954816 -5.0537
upperneck 32.253 -1.07633 1.25032
head 13.3475 -1.14131 1.15325
rclavicle 5.24792e-014 -4.21423e-014
rhumerus -62.9758 -46.1973 3.60293
rradius 35.2209
rwrist -68.4933
rhand -3.49021 -2.47966
rfingers 7.12502
rthumb 22.2434 -31.2197
lclavicle 5.24792e-014 -4.21423e-014
lhumerus -36.8909 28.3083 57.9446
lradius 32.1
lwrist -3.81983
lhand -6.80679 33.3584
lfingers 7.12502
lthumb 19.0566 62.4448
rfemur -18.0754 -18.7383 10.9932
rtibia 44.906
rfoot -28.3943 -3.50984
rtoes -41.3662
lfemur -55.2535 19.4463 2.89167
ltibia 83.3054
lfoot -24.8952 -4.56852
ltoes -18.097
374
root 11.4558 15.5272 18.0558 -303.072 -71.9706 318.102
lowerback 23.9576 2.06064 0.0704989
upperback 8.36356 2.13843 0.892148
thorax -4.16643 0.788354 0.368294
lowerneck -14.6376 -1.3325 -5.43289
upperneck 32.1536 -1.75186 1.95519
head 13.3137 -1.38428 1.39217
rclavicle 1.74931e-014 1.59028e-015
rhumerus -62.3294 -46.1546 3.42786
rradius 35.0479
rwrist -68.2173
rhand -3.85407 -2.91989
rfingers 7.12502
rthumb 21.8941 -31.7011
lclavicle 1.74931e-014 1.59028e-015
lhumerus -36.5074 28.2566 58.7108
lradius 31.2878
lwrist -5.07917
lhand -7.61272 33.1488
lfingers 7.12502
lthumb 18.2814 62.3097
rfemur -18.3122 -18.177 11.6613
rtibia 44.779
rfoot -28.0816 -3.64015
rtoes -40.7649
lfemur -55.9495 19.915 3.50062
ltibia 83.5689
lfoot -24.8858 -5.85298
ltoes -17.7711
375
root 11.461 15.4892 18.1349 -301.844 -71.5843 317.009
lowerback 23.9413 2.03882 0.259744
upperback 8.33663 2.16045 0.999751
thorax -4.18475 0.799659 0.370631
lowerneck -14.2396 -1.74186 -5.52678
upperneck 31.8023 -2.4504 2.32721
head 13.1175 -1.6444 1.44708
rclavicle 2.94201e-014 -5.40694e-014
rhumerus -61.6238 -46.1234 3.24139
rradius 34.8736
rwrist -68.6022
rhand -4.97032 -3.81614
rfingers 7.12502
rthumb 20.8219 -32.7189
lclavicle 2.94201e-014 -5.40694e-014
lhumerus -36.1896 28.2376 59.2858
lradius 30.6986
lwrist -6.20412
lhand -7.51823 33.0147
lfingers 7.12502
lthumb 18.3724 62.1671
rfemur -18.4331 -17.9167 12.0107
rtibia 44.6707
rfoot -28.0307 -4.19605
rtoes -40.9056
lfemur -56.7149 20.0951 3.731
ltibia 83.7518
lfoot -24.7899 -6.81916
ltoes -18.4378
376
root 11.4536 15.4584 18.2192 -302.037 -71.7422 317.396
lowerback 23.9131 2.07413 -0.0908762
upperback 8.28543 2.12283 0.816944
thorax -4.233 0.782965 0.383089
lowerneck -13.8219 -2.15827 -5.3957
upperneck 31.424 -3.16528 2.54686
head 12.9055 -1.90698 1.40273
rclavicle 1.98785e-014 1.59028e-015
rhumerus -61.4348 -46.1908 3.54608
rradius 34.5187
rwrist -69.4426
rhand -5.45788 -4.45273
rfingers 7.12502
rthumb 20.3534 -33.4062
lclavicle 1.98785e-014 1.59028e-015
lhumerus -35.8536 28.5762 59.4056
lradius 30.0642
lwrist -7.64613
lhand -7.4436 32.2327
lfingers 7.12502
lthumb 18.4441 61.3782
rfemur -18.4719 -18.0195 11.4928
rtibia 44.5385
rfoot -27.807 -4.51275
rtoes -41.2264
lfemur -57.4628 19.9789 3.05441
ltibia 83.9038
lfoot -24.675 -7.48365
ltoes -19.6818
377
root 11.4477 15.4378 18.3066 -301.852 -71.8999 317.36
lowerback 23.9871 2.12875 -0.272723
upperback 8.1806 2.14005 0.511864
thorax -4.37916 0.796236 0.149674
lowerneck -13.51 -2.53634 -5.14562
upperneck 31.2007 -3.90704 2.92402
head 12.785 -2.15322 1.3959
rclavicle -1.66979e-014 -4.29375e-014
rhumerus -61.8242 -46.3849 4.14104
rradius 34.1794
rwrist -69.4864
rhand -5.3709 -4.86692
rfingers 7.12502
rthumb 20.437 -33.8114
lclavicle -1.66979e-014 -4.29375e-014
lhumerus -35.6048 28.6797 59.2971
lradius 29.698
lwrist -8.93345
lhand -7.41171 31.4103
lfingers 7.12502
lthumb 18.4748 60.553
rfemur -18.5054 -17.9385 11.0772
rtibia 44.3566
rfoot -27.4374 -4.69022
rtoes -41.401
lfemur -58.2751 20.1156 2.35587
ltibia 84.1064
lfoot -24.7524 -8.18901
ltoes -20.0845
378
root 11.4444 15.4151 18.3857 -301.208 -71.8033 316.633
lowerback 24.2198 2.21788 -0.464245
upperback 8.13831 2.20918 0.541822
thorax -4.5498 0.826189 0.266145
lowerneck -13.2893 -2.91099 -5.50899
upperneck 31.123 -4.56378 3.55496
head 12.7677 -2.4052 1.60596
rclavicle 3.73715e-014 1.43125e-014
rhumerus -61.482 -46.3533 4.23452
rradius 33.9908
rwrist -69.7132
rhand -5.67583 -5.34117
rfingers 7.12502
rthumb 20.144 -34.3168
lclavicle 3.73715e-014 1.43125e-014
lhumerus -35.5841 28.4798 59.5742
lradius 29.7495
lwrist -9.47784
lhand -7.02251 30.9539
lfingers 7.12502
lthumb 18.8492 60.0606
rfemur -18.2762 -17.5354 10.991
rtibia 44.1156
rfoot -27.2826 -4.78803
rtoes -41.2278
lfemur -58.9648 20.4587 2.02178
ltibia 84.3347
lfoot -25.0107 -9.10673
ltoes -20.214
379
root 11.4413 15.386 18.4509 -298.846 -70.9521 314.168
lowerback 24.3242 2.29856 -0.0487737
upperback 8.13927 2.4262 0.938821
thorax -4.60237 0.926304 0.396421
lowerneck -13.0125 -3.31992 -6.01499
upperneck 30.8406 -5.17348 4.05911
head 12.6608 -2.66645 1.79878
rclavicle 6.20208e-014 -3.18055e-014
rhumerus -60.7902 -46.2341 4.05435
rradius 33.9423
rwrist -70.4855
rhand -5.95912 -5.70131
rfingers 7.12502
rthumb 19.8717 -34.7054
lclavicle 6.20208e-014 -3.18055e-014
lhumerus -35.3162 27.9988 60.1412
lradius 29.8526
lwrist -9.52125
lhand -6.979 30.7902
lfingers 7.12502
lthumb 18.891 59.8929
rfemur -18.1381 -16.7641 12.0558
rtibia 43.8469
rfoot -27.2045 -5.09109
rtoes -41.2175
lfemur -59.8262 21.2512 2.69926
ltibia 84.6233
lfoot -25.2877 -10.3423
ltoes -21.3922
380
root 11.4365 15.3527 18.5137 -296.465 -69.8822 311.827
lowerback 24.3297 2.3059 0.733772
upperback 8.08687 2.62851 1.16349
thorax -4.63771 1.02602 0.137116
lowerneck -12.8922 -3.78347 -6.18812
upperneck 30.6453 -5.91468 4.47475
head 12.625 -2.95682 1.87797
rclavicle -3.18055e-015 3.57812e-014
rhumerus -60.6739 -46.5229 4.31588
rradius 33.5655
rwrist -70.5239
rhand -5.76463 -5.84741
rfingers 7.12502
rthumb 20.0586 -34.832
lclavicle -3.18055e-015 3.57812e-014
lhumerus -34.9053 27.4579 60.3016
lradius 30.0394
lwrist -9.79036
lhand -7.08378 30.3686
lfingers 7.12502
lthumb 18.7902 59.481
rfemur -18.1854 -16.1477 13.386
rtibia 43.6023
rfoot -27.0038 -5.62117
rtoes -41.8362
lfemur -61.0179 22.1221 3.45476
ltibia 84.9517
lfoot -25.3047 -11.5954
ltoes -22.3212
381
root 11.4221 15.327 18.5867 -295.629 -69.6402 311.088
lowerback 24.2821 2.35691 0.824392
upperback 8.0345 2.70862 1.01107
thorax -4.65916 1.06859 -0.100684
lowerneck -12.8897 -4.2869 -6.24797
upperneck 30.6507 -6.727 4.80545
head 12.6998 -3.27616 1.89212
rclavicle -6.36111e-015 1.59028e-015
rhumerus -60.6331 -46.9792 4.73093
rradius 32.8561
rwrist -69.9309
rhand -5.05088 -6.11926
rfingers 7.12502
rthumb 20.7445 -35.0305
lclavicle -6.36111e-015 1.59028e-015
lhumerus -34.6232 27.093 60.1153
lradius 30.3728
lwrist -10.355
lhand -6.93918 29.5598
lfingers 7.12502
lthumb 18.9293 58.6587
rfemur -18.1531 -15.8069 13.512
rtibia 43.3721
rfoot -26.8171 -5.95721
rtoes -42.0333
lfemur -62.1612 22.6475 2.95829
ltibia 85.2384
lfoot -25.2275 -12.5448
ltoes -22.317
382
root 11.4089 15.3038 18.6662 -295.101 -69.3283 310.613
lowerback 24.1697 2.38346 0.874312
upperback 8.0648 2.75334 1.04343
thorax -4.56923 1.09055 -0.102312
lowerneck -12.6961 -4.69211 -6.55699
upperneck 30.4394 -7.28999 5.03387
head 12.6376 -3.52913 1.94989
rclavicle -7.79236e-014 4.92986e-014
rhumerus -59.7588 -46.795 4.18134
rradius 32.6399
rwrist -69.9795
rhand -4.6318 -6.63879
rfingers 7.12502
rthumb 21.1472 -35.5055
lclavicle -7.79236e-014 4.92986e-014
lhumerus -34.3163 27.0086 60.116
lradius 30.6801
lwrist -11.0587
lhand -6.53697 28.9051
lfingers 7.12502
lthumb 19.3161 57.9658
rfemur -18.0291 -15.4804 13.6304
rtibia 43.1495
rfoot -26.6939 -6.25545
rtoes -41.8993
lfemur -63.3147 23.09 2.34407
ltibia 85.5196
lfoot -25.3225 -13.2107
ltoes -22.5882
383
root 11.3896 15.2754 18.749 -295.696 -68.9594 311.112
lowerback 24.1262 2.30597 0.833373
upperback 8.18437 2.64475 1.18111
thorax -4.42633 1.03434 0.102606
lowerneck -12.4774 -5.00126 -7.17316
upperneck 30.229 -7.69173 5.42501
head 12.5844 -3.72785 2.14754
rclavicle -1.90833e-014 3.18055e-014
rhumerus -58.5959 -46.3782 3.32051
rradius 32.7159
rwrist -70.6589
rhand -4.97581 -6.8929
rfingers 7.12502
rthumb 20.8167 -35.7962
lclavicle -1.90833e-014 3.18055e-014
lhumerus -34.0528 26.7834 60.2623
lradius 31.0654
lwrist -11.5448
lhand -6.13989 28.4034
lfingers 7.12502
lthumb 19.6979 57.4254
rfemur -17.4966 -15.644 13.5217
rtibia 42.8812
rfoot -26.6081 -6.04461
rtoes -41.8128
lfemur -64.4112 23.1548 1.5755
ltibia 85.8472
lfoot -25.4462 -13.6735
ltoes -21.9758
384
root 11.3611 15.237 18.8313 -296.929 -68.9995 312.211
lowerback 24.1015 2.24225 0.526255
upperback 8.3008 2.47695 1.01633
thorax -4.29355 0.951547 0.147621
lowerneck -12.2892 -5.31709 -7.33914
upperneck 30.0722 -8.16581 5.6371
head 12.539 -3.93046 2.18769
rclavicle 0 6.04305e-014
rhumerus -58.143 -46.4347 3.07537
rradius 32.6649
rwrist -71.778
rhand -5.53856 -6.8566
rfingers 7.12502
rthumb 20.2759 -35.8183
lclavicle 0 6.04305e-014
lhumerus -33.7413 26.3679 60.0578
lradius 31.4594
lwrist -11.9029
lhand -5.8721 27.8179
lfingers 7.12502
lthumb 19.9553 56.8133
rfemur -16.7876 -16.0225 12.7717
rtibia 42.549
rfoot -26.4598 -5.27352
rtoes -40.7865
lfemur -65.4694 23.0887 0.21813
ltibia 86.2189
lfoot -25.4497 -14.0708
ltoes -20.502
